<svg width="248" height="46" viewBox="0 0 248 46" fill="none" xmlns="http://www.w3.org/2000/svg">
<path d="M14.2891 35.6847L14.286 36.3019C14.286 36.4084 14.2014 36.493 14.0949 36.493H13.0579C12.9513 36.493 12.8668 36.4084 12.8668 36.3019L12.8699 35.6847C12.8762 31.6339 12.8824 27.2322 11.457 24.1682C10.373 23.432 5.8491 20.7345 0.529459 22.8336C0.42294 22.8712 0.300757 22.8148 0.266295 22.702C0.172309 22.3668 0.0877208 22.0284 0.0125315 21.6838C-0.00939867 21.5898 0.0438606 21.4896 0.134714 21.4551C3.82212 20.0516 7.13984 20.6687 9.42372 21.5397C8.91305 21.1544 8.32719 20.841 7.65365 20.6186C2.80393 19.0302 0.814549 16.3329 0.0125315 14.1711C0 14.1367 -0.00313289 14.096 0.00313288 14.0584C0.147246 13.3785 0.332086 12.7144 0.551388 12.069C0.620311 11.8716 0.908535 11.9061 0.930465 12.1097C1.10904 13.7044 2.07084 16.6963 6.52893 18.67C6.15927 16.0791 6.54458 13.8516 6.8892 11.8528C7.37482 9.04261 7.77268 6.76813 6.14048 4.21486C6.08719 4.13023 6.10284 4.02061 6.17807 3.95482C6.44746 3.73552 6.72004 3.52248 7.00202 3.31883C7.09285 3.25305 7.22442 3.27809 7.28395 3.37207C9.27021 6.42351 8.79088 9.18358 8.2865 12.0941C7.90429 14.2902 7.51264 16.5584 8.0703 19.2652C8.0766 19.2683 8.086 19.2715 8.09539 19.2715C14.3079 21.3173 14.2985 28.949 14.2891 35.6847Z" fill="white"/>
<path d="M35.0695 21.7246C34.9943 22.0629 34.9097 22.4013 34.8157 22.7365C34.7844 22.8461 34.6622 22.9057 34.5557 22.8649C28.882 20.7409 23.9196 23.4289 22.7197 24.1682C22.234 26.4271 22.2372 28.8268 22.2403 30.5123V36.3019C22.2403 36.4084 22.1557 36.493 22.0492 36.493H21.0122C20.9057 36.493 20.8211 36.4084 20.8211 36.3019V30.5154C20.8148 27.7052 20.8086 23.0717 22.8951 19.8668C21.7171 18.504 20.6112 16.358 20.6708 13.955C20.7177 11.928 21.6106 10.0703 23.2428 8.58527C25.7617 6.29514 26.1533 4.24309 26.0123 2.35395C26.0029 2.1973 26.169 2.09392 26.3037 2.16911C26.6639 2.37275 27.0179 2.58578 27.3626 2.81449C27.419 2.85208 27.4534 2.9116 27.4534 2.98051C27.4534 4.93232 26.8268 7.24751 24.1984 9.63477C22.8356 10.8691 22.1275 12.3353 22.0868 13.9863C22.0429 15.8724 22.8669 17.5735 23.7879 18.7264C24.3206 18.1688 24.944 17.68 25.6834 17.2947C27.4754 16.358 29.1765 15.9695 30.674 15.6311C32.914 15.1173 34.1139 14.7852 34.587 13.4726C34.6528 13.2877 34.916 13.2971 34.963 13.4851C35.0851 13.9769 35.1885 14.4751 35.27 14.9795C35.2794 15.039 35.2637 15.0985 35.223 15.1424C34.233 16.2734 32.6415 16.6336 30.9905 17.0096C29.5744 17.3323 27.9704 17.6988 26.3381 18.5479C24.8406 19.3311 23.8882 20.6751 23.2867 22.2352C25.5706 21.1199 29.9566 19.66 34.9442 21.4927C35.0382 21.5303 35.0914 21.6306 35.0695 21.7246Z" fill="white"/>
<path d="M22.1587 0.486718C22.3029 0.524313 22.353 0.702889 22.2465 0.809407C21.7452 1.31693 20.9087 2.67034 20.6362 6.12276C20.3699 9.52822 18.7784 12.1818 17.497 14.3153C16.5728 15.8535 15.7677 17.1944 15.6893 18.388C16.9801 20.5059 18.2583 23.2346 18.2583 27.6488V36.3019C18.2583 36.4084 18.1737 36.493 18.0672 36.493H17.0302C16.9237 36.493 16.8391 36.4084 16.8391 36.3019V27.6457C16.8391 22.7334 15.1755 20.1675 13.7062 17.9024C11.9863 15.2489 10.3572 12.7426 12.3246 7.53571C13.8065 3.61962 14.1887 1.40466 14.2764 0.330076C14.2827 0.242353 14.3485 0.170296 14.4362 0.154634C14.7839 0.091975 15.1379 0.0418476 15.4919 0.00112226C15.611 -0.0114096 15.7144 0.0825771 15.7081 0.204757C15.6455 1.40466 15.257 3.78878 13.6498 8.04009C12.027 12.3353 13.0577 14.2777 14.6273 16.7213C14.997 15.7188 15.611 14.6975 16.2783 13.5853C17.544 11.4769 18.9789 9.08648 19.2201 6.01313C19.4582 2.94604 20.1411 1.24488 20.8116 0.301878C20.8555 0.239219 20.9338 0.211025 21.0058 0.226687C21.4006 0.298744 21.7828 0.386467 22.1587 0.486718Z" fill="white"/>
<path d="M24.6439 16.6836C26.1822 16.3484 27.1565 14.829 26.8213 13.2907L26.7555 12.9868C26.7336 12.8897 26.6364 12.8271 26.5393 12.8459L26.2354 12.9116C24.6972 13.2469 23.7229 14.7663 24.0581 16.3046L24.1239 16.6116C24.1458 16.7087 24.2429 16.7713 24.3401 16.7525L24.6439 16.6836Z" fill="white"/>
<path d="M23.986 24.4688L23.7166 24.6224C23.6289 24.6725 23.6007 24.7853 23.6508 24.873L23.8043 25.1424C24.5907 26.5052 26.3357 26.972 27.6985 26.1857L27.968 26.0322C28.0556 25.982 28.0838 25.8692 28.0337 25.7815L27.8802 25.5121C27.0939 24.1493 25.352 23.6825 23.986 24.4688Z" fill="white"/>
<path d="M19.0672 19.0459L18.7759 18.9394C18.6819 18.9049 18.5754 18.955 18.5409 19.049L18.4343 19.3404C17.8986 20.8222 18.6631 22.4545 20.1449 22.9902L20.4363 23.0967C20.5303 23.1312 20.6368 23.0811 20.6712 22.9871L20.7778 22.6957C21.3135 21.217 20.5459 19.5816 19.0672 19.0459Z" fill="white"/>
<path d="M20.1666 15.8534L20.2105 15.5464C20.2262 15.4462 20.1541 15.3553 20.0538 15.3396L19.7468 15.2958C18.1866 15.0733 16.7455 16.1573 16.5231 17.7175L16.4792 18.0245C16.4635 18.1248 16.5356 18.2156 16.6358 18.2313L16.9429 18.2752C18.503 18.4944 19.9442 17.4105 20.1666 15.8534Z" fill="white"/>
<path d="M17.7481 7.88026L17.792 7.57324C17.8076 7.47301 17.7387 7.37903 17.6384 7.36649L17.3314 7.32265C15.7744 7.0908 14.3239 8.16849 14.0952 9.72555L14.0513 10.0326C14.0356 10.1328 14.1046 10.2268 14.2048 10.2393L14.5118 10.2832C16.0689 10.5151 17.5163 9.43733 17.7481 7.88026Z" fill="white"/>
<path d="M10.7088 14.4968L10.4175 14.6034C8.94188 15.1485 8.18686 16.787 8.73198 18.2657L8.8385 18.5571C8.87295 18.6511 8.97947 18.7012 9.07349 18.6667L9.36482 18.5602C10.8404 18.0151 11.5954 16.3766 11.0503 14.8979L10.9438 14.6065C10.9093 14.5094 10.806 14.4624 10.7088 14.4968Z" fill="white"/>
<path d="M6.54203 11.1884C6.76443 9.62827 5.68045 8.18713 4.12029 7.96468L3.81327 7.92084C3.71301 7.90519 3.62216 7.97723 3.6065 8.0775L3.56263 8.38452C3.3402 9.94469 4.42416 11.3858 5.98122 11.6082L6.28824 11.6521C6.38851 11.6678 6.47935 11.5957 6.495 11.4955L6.54203 11.1884Z" fill="white"/>
<path d="M4.48984 16.2324C5.60202 15.1202 5.60202 13.3125 4.48984 12.2004L4.27055 11.9811C4.19847 11.909 4.08256 11.909 4.01364 11.9811L3.79434 12.2004C2.68216 13.3125 2.68216 15.1202 3.79434 16.2324L4.01364 16.4517C4.08569 16.5237 4.20161 16.5237 4.27055 16.4517L4.48984 16.2324Z" fill="white"/>
<path d="M10.1542 2.87698L9.8628 2.7736C9.76882 2.73913 9.6623 2.78926 9.62786 2.88325L9.52444 3.17463C8.99501 4.65646 9.76568 6.28871 11.2507 6.81813L11.542 6.92155C11.636 6.956 11.7425 6.90586 11.777 6.81188L11.8804 6.52055C12.4098 5.03867 11.6392 3.40643 10.1542 2.87698Z" fill="white"/>
<path d="M18.4281 4.10207L18.7288 4.17725C18.826 4.2023 18.9262 4.1428 18.9513 4.04568L19.0265 3.74491C19.4118 2.21919 18.4876 0.668413 16.9619 0.283068L16.6611 0.207881C16.564 0.182818 16.4637 0.242343 16.4387 0.339464L16.3635 0.640219C15.975 2.16593 16.9024 3.71671 18.4281 4.10207Z" fill="white"/>
<path d="M34.2805 18.0371C33.0023 17.1161 31.2197 17.4074 30.3017 18.6857L30.12 18.9363C30.0605 19.0177 30.0793 19.1337 30.1608 19.19L30.4114 19.3717C31.6896 20.2928 33.4722 20.0014 34.3902 18.7233L34.5719 18.4726C34.6314 18.3911 34.6126 18.2752 34.5311 18.2188L34.2805 18.0371Z" fill="white"/>
<path d="M6.4763 25.5151L6.32279 25.7845C6.2727 25.8723 6.30089 25.985 6.38857 26.0352L6.65801 26.1887C8.02082 26.975 9.76584 26.5083 10.5522 25.1454L10.7057 24.876C10.7558 24.7883 10.7276 24.6755 10.6399 24.6254L10.3705 24.4687C9.00767 23.6824 7.2658 24.1492 6.4763 25.5151Z" fill="white"/>
<path d="M30.0388 22.8773L29.7349 22.9337C29.6347 22.9525 29.5689 23.0465 29.5877 23.1467L29.6441 23.4506C29.9229 25.0014 31.4047 26.029 32.9555 25.7502L33.2594 25.6938C33.3596 25.675 33.4254 25.581 33.4066 25.4807L33.3503 25.1769C33.0714 23.6292 31.5896 22.5985 30.0388 22.8773Z" fill="white"/>
<path d="M1.92422 25.1769L1.86783 25.4807C1.84903 25.581 1.91482 25.675 2.01507 25.6938L2.31896 25.7502C3.86974 26.029 5.35158 24.9983 5.63041 23.4506L5.6868 23.1467C5.70559 23.0465 5.63981 22.9525 5.53958 22.9337L5.23566 22.8773C3.6849 22.5985 2.20305 23.6292 1.92422 25.1769Z" fill="white"/>
<path d="M24.4497 10.3805L24.2241 10.5904C24.1489 10.6593 24.1458 10.7752 24.2147 10.8472L24.4246 11.0728C25.4961 12.2257 27.3006 12.2915 28.4535 11.22L28.6791 11.0101C28.7543 10.9412 28.7574 10.8253 28.6885 10.7533L28.4786 10.5277C27.4071 9.37791 25.6026 9.30902 24.4497 10.3805Z" fill="white"/>
<path d="M30.7838 6.62705L30.8872 6.33572C30.9217 6.24174 30.8716 6.13522 30.7776 6.10073L30.4862 5.99735C29.0044 5.46789 27.3721 6.23859 26.8427 7.72358L26.7393 8.01495C26.7048 8.10893 26.7549 8.21545 26.8489 8.2499L27.1403 8.35327C28.6222 8.87959 30.2544 8.10893 30.7838 6.62705Z" fill="white"/>
<path d="M25.0732 3.1935V2.88337C25.0732 2.78311 24.9917 2.70166 24.8914 2.70166H24.5813C23.0054 2.70166 21.7303 3.97675 21.7303 5.55257V5.86274C21.7303 5.96301 21.8118 6.04444 21.9121 6.04444H22.2222C23.7981 6.04444 25.0732 4.76621 25.0732 3.1935Z" fill="white"/>
<path d="M29.9979 14.1179L30.0417 14.4249C30.0574 14.5252 30.1482 14.5941 30.2485 14.5784L30.5555 14.5346C32.1126 14.309 33.1965 12.8648 32.971 11.3077L32.9271 11.0007C32.9115 10.9004 32.8206 10.8315 32.7204 10.8472L32.4133 10.891C30.8563 11.1135 29.7754 12.5609 29.9979 14.1179Z" fill="white"/>
<path d="M73.682 15.7346H79.0471V16.1015H79.0014C77.6257 16.1015 76.3415 16.7893 75.9748 17.7523L71.2973 34.994C71.2515 35.0857 71.2515 35.2233 71.2515 35.315C71.2515 36.1404 72.1229 36.5072 73.4986 36.5072V36.9199H65.1987V36.5072C66.5283 36.5072 67.354 36.1404 67.354 35.3609C67.354 35.2233 67.354 35.1316 67.3082 34.994C67.3082 34.9023 67.2621 34.8106 67.2621 34.7647L62.264 18.486L57.7698 34.994C57.7241 35.0857 57.7241 35.2233 57.7241 35.315C57.7241 36.1404 58.5955 36.5072 59.9712 36.5072V36.9199H51.6713V36.5072C53.0009 36.5072 53.8265 36.1404 53.8265 35.3609C53.8265 35.2233 53.8265 35.1316 53.7808 34.994C53.7808 34.9023 53.7808 34.8106 53.7347 34.7647L48.5533 17.7981C48.5071 17.7523 48.5071 17.7064 48.5071 17.6605C48.0947 16.56 46.4895 16.1015 45.389 16.1015V15.7346H53.368V16.1015C52.038 16.1015 51.5337 16.4683 51.5337 17.202C51.5337 17.3854 51.5794 17.6147 51.6256 17.844L57.1279 35.7277L61.9431 17.844L61.9888 17.7981V17.6605C61.576 16.5142 60.0169 16.1015 58.9165 16.1015V15.7346H66.8954V16.1015C65.5654 16.1015 65.0611 16.4683 65.0611 17.202C65.0611 17.3854 65.1069 17.6147 65.153 17.844L70.6554 35.7277L75.4705 17.844L75.5162 17.7981C75.562 17.6147 75.6077 17.4313 75.6077 17.2479C75.6077 16.5142 75.0577 16.1015 73.682 16.1015V15.7346ZM84.5688 9.03971C83.3764 9.03971 82.4136 8.07673 82.4136 6.8845C82.4136 5.73809 83.3764 4.77511 84.5688 4.77511C85.715 4.77511 86.724 5.73809 86.724 6.8845C86.724 8.07673 85.715 9.03971 84.5688 9.03971ZM83.285 33.5725V19.4031C83.285 17.8898 82.3678 17.1103 80.9003 17.1103V16.6976C81.7717 16.6976 82.5969 16.6517 83.285 16.56C84.4312 16.3766 85.2564 16.1015 85.8069 15.7346H86.1735V33.71C86.2654 35.1316 86.9992 36.5531 88.604 36.5531V36.9199H80.9003V36.5531C82.505 36.5531 83.285 35.0399 83.285 33.5725ZM106.259 33.71V22.1544C106.259 20.5036 106.121 18.6235 104.791 17.7064C104.149 17.2937 103.37 17.0645 102.498 17.0645C101.536 17.0645 100.481 17.3396 99.4723 17.7523C97.9133 18.486 96.6748 19.8617 95.7581 21.2832V33.8476C95.8038 35.2691 96.5833 36.6906 98.1423 36.6906V37.0575H90.4386V36.6906C92.0896 36.6906 92.8229 35.1774 92.8691 33.71V19.6782C92.8691 18.1191 91.9977 17.2937 90.4386 17.2479V16.881C91.8601 16.881 94.1986 16.7435 95.3452 15.918H95.7581V20.8246C96.4914 19.4031 97.5004 18.486 98.5552 17.6605C99.839 16.6059 101.352 15.9639 102.911 15.918H103.278C106.213 15.918 108.873 17.9357 109.148 21.5124V33.8476C109.194 35.2691 109.927 36.6448 111.486 36.6906H111.532V37.0575H103.828V36.6906C105.479 36.6906 106.213 35.1774 106.259 33.71ZM118.686 24.4472C117.264 24.9975 116.301 25.9604 116.301 27.5654C116.301 28.0239 116.393 28.5283 116.531 29.0786C117.585 33.0222 120.015 35.4526 123.913 35.4526C124.188 35.4526 124.51 35.4526 124.784 35.4067C128.315 35.1316 131.617 33.2515 132.488 28.3908H132.901C132.259 33.068 128.728 37.1034 123.225 37.2409H123.042C117.493 37.2409 113.366 32.9305 113.366 26.5107V26.419C113.366 20.1826 117.264 15.6429 123.042 15.6429H123.225C125.518 15.6888 127.673 16.3308 129.37 17.7981C130.517 18.7152 131.755 20.1826 131.755 21.7417C131.755 22.1086 131.709 22.4296 131.571 22.7964C131.204 23.8052 128.866 23.8969 126.114 23.8969H124.234C122.217 23.8969 120.153 23.8969 118.686 24.4472ZM115.98 27.5195C116.072 25.5477 117.264 24.5848 118.594 24.1262C122.4 22.7964 128.911 24.8599 129.049 20.9622C129.049 20.2285 128.82 19.3572 128.453 18.8528C127.536 17.1103 125.335 16.1473 122.996 16.1473C119.557 16.1473 115.797 18.3942 115.659 23.8969C115.659 24.7223 115.843 26.74 115.98 27.5195ZM161.716 16.1015V15.7346H167.081V16.1015C165.018 16.1473 164.467 16.6059 164.054 17.7523C161.899 23.6676 159.744 29.5372 157.589 35.4067V35.5443C157.589 36.1862 158.598 36.5072 159.79 36.5072V36.9199H151.719V36.5072C153.049 36.5072 153.921 36.0945 153.921 35.4067C153.921 35.315 153.921 35.2233 153.874 35.1316L148.143 17.7523C147.684 16.4683 146.354 16.1015 145.116 16.1015V15.7346H153.141V16.1015C151.719 16.1015 151.123 16.5142 151.123 17.2937C151.123 17.4313 151.169 17.523 151.169 17.6605L157.084 35.5443C157.268 35.0857 162.083 21.8334 163.596 17.6605C163.733 17.2937 163.825 17.0186 163.825 16.7893C163.825 16.2849 163.367 16.1015 161.716 16.1015ZM168.664 21.0539V19.0821C170.406 16.8352 173.341 15.918 176.138 15.8722C177.743 15.8722 179.348 16.1473 180.632 16.7435C180.907 16.881 181.182 17.0186 181.457 17.202C182.604 17.9357 183.154 18.7611 183.429 19.9992C183.475 20.2285 183.475 20.4577 183.475 20.687C183.475 24.0804 179.761 24.8599 176.964 25.5936C171.599 27.2444 169.81 29.7665 169.81 32.0134V32.2885C169.993 35.1316 171.92 36.5531 174.166 36.5531C174.441 36.5531 174.671 36.5531 174.946 36.5072C177.285 36.1862 180.724 33.4807 180.724 30.9128C180.724 30.3626 180.586 29.8582 180.265 29.3538C182.145 28.7118 183.246 27.8864 183.521 26.1897V32.7471C183.521 34.994 184.346 35.315 186.181 35.315V35.6818H185.859C184.942 35.6818 184.163 35.8652 183.521 36.0945C182.879 36.3697 182.375 36.7365 182.054 37.0575H181.595C181.045 36.7365 180.724 35.636 180.632 33.8017V32.8388C179.348 35.2691 176.872 37.0575 173.8 37.1034C172.424 37.1034 171.14 36.8741 170.085 36.4155C168.297 35.636 167.059 34.031 167.059 32.0592V31.9675C167.104 29.8582 168.251 28.0239 170.085 27.0151C173.524 25.1351 180.632 25.9604 180.632 20.9622C180.632 17.7523 178.981 16.2849 175.817 16.2849H175.588C172.561 16.2849 169.627 18.165 168.664 21.0539ZM195.72 36.5531V36.9199H188.016V36.5531C189.667 36.5531 190.401 35.0399 190.447 33.5725V5.27953C190.401 3.76631 189.53 2.98675 188.016 2.98675V2.57406C188.933 2.57406 189.713 2.52819 190.447 2.43649C191.547 2.25306 192.372 1.97793 192.923 1.61108H193.335V33.71C193.381 35.1316 194.161 36.5531 195.72 36.5531ZM205.258 36.5531V36.9199H197.555V36.5531C199.205 36.5531 199.939 35.0399 199.985 33.5725V5.27953C199.939 3.76631 199.068 2.98675 197.555 2.98675V2.57406C198.472 2.57406 199.251 2.52819 199.985 2.43649C201.086 2.25306 201.911 1.97793 202.461 1.61108H202.874V33.71C202.92 35.1316 203.699 36.5531 205.258 36.5531ZM212.412 24.4472C210.991 24.9975 210.028 25.9604 210.028 27.5654C210.028 28.0239 210.119 28.5283 210.257 29.0786C211.312 33.0222 213.742 35.4526 217.64 35.4526C217.915 35.4526 218.236 35.4526 218.511 35.4067C222.042 35.1316 225.343 33.2515 226.215 28.3908H226.627C225.985 33.068 222.455 37.1034 216.952 37.2409H216.769C211.22 37.2409 207.093 32.9305 207.093 26.5107V26.419C207.093 20.1826 210.991 15.6429 216.769 15.6429H216.952C219.245 15.6888 221.4 16.3308 223.097 17.7981C224.243 18.7152 225.481 20.1826 225.481 21.7417C225.481 22.1086 225.435 22.4296 225.298 22.7964C224.931 23.8052 222.592 23.8969 219.841 23.8969H217.961C215.943 23.8969 213.88 23.8969 212.412 24.4472ZM209.707 27.5195C209.798 25.5477 210.991 24.5848 212.321 24.1262C216.126 22.7964 222.638 24.8599 222.776 20.9622C222.776 20.2285 222.546 19.3572 222.179 18.8528C221.262 17.1103 219.061 16.1473 216.722 16.1473C213.283 16.1473 209.523 18.3942 209.386 23.8969C209.386 24.7223 209.569 26.74 209.707 27.5195ZM242.635 16.1473V15.7346H248V16.1473C246.624 16.1473 245.524 16.2849 244.973 17.6605L237.958 36.9199L236.215 41.8265C235.298 43.8441 233.968 45.7703 231.4 45.9074H231.125C229.566 45.9074 227.457 45.2198 227.457 43.3856V43.3398C227.503 41.5056 228.97 40.6801 231.4 40.6801C232.088 40.6801 232.822 40.7261 233.647 40.8637C233.968 40.9094 234.244 40.9551 234.518 40.9551C234.885 40.9551 235.206 40.9094 235.482 40.6801C235.94 40.3591 236.353 39.8088 236.72 39.0751L237.499 36.9199H235.435L229.245 18.2567C228.695 16.6517 227.732 16.1473 226.035 16.1473V15.7346H234.014V16.1473C233.143 16.1473 232.042 16.3766 232.042 17.2479C232.042 17.3854 232.088 17.523 232.134 17.7064L238.049 35.4526L244.423 17.9357C244.607 17.4313 244.699 17.1103 244.699 16.8352C244.699 16.1932 244.056 16.1473 242.635 16.1473ZM232.225 45.3117C234.61 44.9903 235.665 42.1932 236.399 40.2674C236.169 40.5425 235.803 40.9094 235.573 41.0927C235.298 41.2761 235.023 41.3222 234.61 41.3222C234.381 41.3222 234.06 41.3222 233.647 41.2304C233.464 41.1846 233.28 41.1846 233.051 41.1846C231.721 41.1846 230.208 41.8265 230.208 43.2937C230.208 43.3856 230.254 43.5232 230.254 43.6608C230.392 44.5779 231.034 45.3117 231.996 45.3117H232.225Z" fill="white"/>
</svg>
